<svg width="1096" height="302" viewBox="0 0 1096 302" fill="none" xmlns="http://www.w3.org/2000/svg">
<path d="M57 167C57 105.144 107.144 55 169 55L217 55C234.673 55 249 69.3269 249 87C249 104.673 234.673 119 217 119L169 119C142.49 119 121 140.49 121 167L121 215C121 232.673 106.673 247 89 247C71.3269 247 57 232.673 57 215L57 167Z" fill="#FFB703"/>
<path d="M217 135C234.673 135 249 149.327 249 167L249 215C249 232.673 234.673 247 217 247C199.327 247 185 232.673 185 215V199H169C151.327 199 137 184.673 137 167C137 149.327 151.327 135 169 135L217 135Z" fill="#FFB703"/>
<path d="M347.486 263.897C341.817 263.897 336.971 262.891 332.949 260.88C328.926 258.869 325.863 256.034 323.76 252.377C321.657 248.72 320.606 244.469 320.606 239.623C320.606 238.617 320.606 237.566 320.606 236.469C320.697 235.463 320.834 234.366 321.017 233.177C313.977 233.086 307.577 231.76 301.817 229.2C296.057 226.64 291.074 223.166 286.869 218.777C282.754 214.389 279.554 209.314 277.269 203.554C275.074 197.703 273.977 191.486 273.977 184.903C273.977 178.137 275.12 171.829 277.406 165.977C279.783 160.126 283.12 155.006 287.417 150.617C291.806 146.137 297.063 142.663 303.189 140.194C309.314 137.634 316.126 136.354 323.623 136.354C331.12 136.354 337.931 137.543 344.057 139.92C350.183 142.297 355.44 145.68 359.829 150.069C364.217 154.457 367.554 159.531 369.84 165.291C372.217 171.051 373.406 177.314 373.406 184.08V236.88C373.406 241.726 372.446 246.206 370.526 250.32C368.697 254.434 365.863 257.726 362.023 260.194C358.183 262.663 353.337 263.897 347.486 263.897ZM346.251 244.286C347.989 244.286 349.314 243.554 350.229 242.091C351.234 240.72 351.737 238.891 351.737 236.606V214.251C349.086 216.537 346.983 218.823 345.429 221.109C343.966 223.394 342.914 225.543 342.274 227.554C341.634 229.566 341.223 231.349 341.04 232.903C340.949 234.457 340.903 235.691 340.903 236.606C340.903 238.251 341.131 239.623 341.589 240.72C342.046 241.909 342.686 242.777 343.509 243.326C344.423 243.966 345.337 244.286 346.251 244.286ZM322.8 213.703C323.806 213.703 324.72 213.657 325.543 213.566C326.457 213.474 327.371 213.337 328.286 213.154C329.931 210.686 331.851 208.263 334.046 205.886C336.24 203.417 338.709 201.04 341.451 198.754C344.194 196.469 347.211 194.32 350.503 192.309V183.394C350.503 179.463 349.817 175.806 348.446 172.423C347.166 169.04 345.291 166.114 342.823 163.646C340.446 161.177 337.611 159.257 334.32 157.886C331.12 156.514 327.6 155.829 323.76 155.829C319.92 155.829 316.354 156.56 313.063 158.023C309.863 159.394 307.029 161.406 304.56 164.057C302.183 166.709 300.309 169.817 298.937 173.383C297.657 176.857 297.017 180.651 297.017 184.766C297.017 188.88 297.611 192.674 298.8 196.149C300.08 199.623 301.863 202.686 304.149 205.337C306.526 207.897 309.269 209.909 312.377 211.371C315.577 212.834 319.051 213.611 322.8 213.703ZM414.796 234C406.842 234 399.848 232.537 393.813 229.611C387.779 226.594 383.07 222.48 379.688 217.269C376.396 211.966 374.75 205.84 374.75 198.891C374.75 191.211 376.35 184.629 379.55 179.143C382.75 173.657 387.002 169.451 392.305 166.526C397.699 163.509 403.642 162 410.133 162C417.539 162 423.71 163.554 428.648 166.663C433.676 169.771 437.47 174.023 440.03 179.417C442.59 184.72 443.87 190.8 443.87 197.657C443.87 198.846 443.779 200.263 443.596 201.909C443.505 203.463 443.368 204.697 443.185 205.611H397.105C397.653 207.989 398.705 210 400.259 211.646C401.813 213.291 403.779 214.526 406.156 215.349C408.533 216.08 411.185 216.446 414.11 216.446H435.642V234H414.796ZM396.556 192.309H423.299C423.116 190.846 422.842 189.429 422.476 188.057C422.11 186.686 421.516 185.497 420.693 184.491C419.962 183.394 419.093 182.48 418.088 181.749C417.082 180.926 415.893 180.286 414.522 179.829C413.242 179.371 411.779 179.143 410.133 179.143C408.03 179.143 406.156 179.509 404.51 180.24C402.865 180.971 401.493 181.977 400.396 183.257C399.299 184.446 398.43 185.863 397.79 187.509C397.242 189.063 396.83 190.663 396.556 192.309ZM446.656 234V192.446C446.656 186.686 447.982 181.52 450.633 176.949C453.376 172.286 457.262 168.629 462.29 165.977C467.319 163.326 473.307 162 480.256 162C483.73 162 486.93 162.411 489.856 163.234C492.782 163.966 495.433 165.017 497.81 166.389C500.279 167.669 502.382 169.223 504.119 171.051H504.393C506.222 169.223 508.325 167.669 510.702 166.389C513.17 165.017 515.868 163.966 518.793 163.234C521.81 162.411 525.056 162 528.53 162C535.479 162 541.467 163.326 546.496 165.977C551.525 168.629 555.41 172.286 558.153 176.949C560.896 181.52 562.267 186.686 562.267 192.446V234H540.873V193.131C540.873 190.846 540.279 188.789 539.09 186.96C537.993 185.04 536.485 183.486 534.565 182.297C532.645 181.109 530.45 180.514 527.982 180.514C525.513 180.514 523.273 181.109 521.262 182.297C519.342 183.486 517.833 185.04 516.736 186.96C515.639 188.789 515.09 190.846 515.09 193.131V234H493.833V193.131C493.833 190.846 493.239 188.789 492.05 186.96C490.953 185.04 489.399 183.486 487.387 182.297C485.467 181.109 483.273 180.514 480.805 180.514C478.336 180.514 476.096 181.109 474.085 182.297C472.165 183.486 470.656 185.04 469.559 186.96C468.462 188.789 467.913 190.846 467.913 193.131V234H446.656ZM596.691 235.646C590.474 235.646 584.989 234.046 580.234 230.846C575.48 227.646 571.777 223.349 569.126 217.954C566.474 212.469 565.149 206.297 565.149 199.44C565.149 192.309 566.703 185.954 569.811 180.377C572.92 174.709 577.309 170.229 582.977 166.937C588.737 163.646 595.503 162 603.274 162C611.137 162 617.811 163.646 623.297 166.937C628.874 170.137 633.126 174.571 636.051 180.24C639.069 185.817 640.577 192.08 640.577 199.029V234H619.731V222.754H619.183C617.903 225.223 616.257 227.463 614.246 229.474C612.234 231.394 609.766 232.903 606.84 234C604.006 235.097 600.623 235.646 596.691 235.646ZM603 217.269C606.2 217.269 608.989 216.491 611.366 214.937C613.834 213.291 615.709 211.051 616.989 208.217C618.269 205.383 618.909 202.229 618.909 198.754C618.909 195.371 618.269 192.309 616.989 189.566C615.709 186.823 613.834 184.674 611.366 183.12C608.989 181.474 606.2 180.651 603 180.651C599.709 180.651 596.829 181.474 594.36 183.12C591.891 184.674 590.017 186.823 588.737 189.566C587.457 192.309 586.817 195.371 586.817 198.754C586.817 202.229 587.457 205.383 588.737 208.217C590.017 211.051 591.891 213.291 594.36 214.937C596.829 216.491 599.709 217.269 603 217.269Z" fill="#58585A"/>
<path d="M656.4 234V138H693.84C702.251 138 709.429 139.326 715.371 141.977C721.314 144.629 725.886 148.469 729.086 153.497C732.286 158.526 733.886 164.514 733.886 171.463C733.886 178.411 732.286 184.4 729.086 189.429C725.886 194.366 721.314 198.206 715.371 200.949C709.429 203.6 702.251 204.926 693.84 204.926H663.943L670.114 198.48V234H656.4ZM670.114 199.851L663.943 192.994H693.429C702.206 192.994 708.834 191.12 713.314 187.371C717.886 183.623 720.171 178.32 720.171 171.463C720.171 164.606 717.886 159.303 713.314 155.554C708.834 151.806 702.206 149.931 693.429 149.931H663.943L670.114 143.074V199.851ZM774.612 234.823C766.84 234.823 759.983 233.223 754.04 230.023C748.189 226.823 743.617 222.434 740.326 216.857C737.126 211.28 735.526 204.88 735.526 197.657C735.526 190.434 737.08 184.034 740.189 178.457C743.389 172.88 747.732 168.537 753.217 165.429C758.795 162.229 765.057 160.629 772.006 160.629C779.046 160.629 785.263 162.183 790.657 165.291C796.052 168.4 800.257 172.789 803.275 178.457C806.383 184.034 807.938 190.571 807.938 198.069C807.938 198.617 807.892 199.257 807.8 199.989C807.8 200.72 807.755 201.406 807.663 202.046H745.812V192.583H800.806L795.457 195.874C795.549 191.211 794.589 187.051 792.577 183.394C790.566 179.737 787.777 176.903 784.212 174.891C780.737 172.789 776.669 171.737 772.006 171.737C767.435 171.737 763.366 172.789 759.8 174.891C756.235 176.903 753.446 179.783 751.435 183.531C749.423 187.189 748.417 191.394 748.417 196.149V198.343C748.417 203.189 749.515 207.531 751.709 211.371C753.995 215.12 757.149 218.046 761.172 220.149C765.195 222.251 769.812 223.303 775.023 223.303C779.32 223.303 783.206 222.571 786.68 221.109C790.246 219.646 793.355 217.451 796.006 214.526L803.275 223.029C799.983 226.869 795.869 229.794 790.932 231.806C786.086 233.817 780.646 234.823 774.612 234.823ZM846.654 234.823C839.614 234.823 833.305 233.269 827.728 230.16C822.242 227.051 817.899 222.709 814.699 217.131C811.499 211.554 809.899 205.063 809.899 197.657C809.899 190.251 811.499 183.806 814.699 178.32C817.899 172.743 822.242 168.4 827.728 165.291C833.305 162.183 839.614 160.629 846.654 160.629C852.779 160.629 858.311 162 863.248 164.743C868.185 167.486 872.116 171.6 875.042 177.086C878.059 182.571 879.568 189.429 879.568 197.657C879.568 205.886 878.105 212.743 875.179 218.229C872.345 223.714 868.459 227.874 863.522 230.709C858.585 233.451 852.962 234.823 846.654 234.823ZM847.751 223.303C852.322 223.303 856.436 222.251 860.094 220.149C863.842 218.046 866.768 215.074 868.871 211.234C871.065 207.303 872.162 202.777 872.162 197.657C872.162 192.446 871.065 187.966 868.871 184.217C866.768 180.377 863.842 177.406 860.094 175.303C856.436 173.2 852.322 172.149 847.751 172.149C843.088 172.149 838.928 173.2 835.271 175.303C831.614 177.406 828.688 180.377 826.494 184.217C824.299 187.966 823.202 192.446 823.202 197.657C823.202 202.777 824.299 207.303 826.494 211.234C828.688 215.074 831.614 218.046 835.271 220.149C838.928 222.251 843.088 223.303 847.751 223.303ZM872.574 234V214.389L873.396 197.52L872.025 180.651V132.24H885.191V234H872.574ZM931.084 234.823C924.867 234.823 919.381 233.68 914.627 231.394C909.964 229.109 906.307 225.634 903.656 220.971C901.096 216.217 899.816 210.274 899.816 203.143V161.314H912.981V201.634C912.981 208.766 914.673 214.114 918.056 217.68C921.53 221.246 926.376 223.029 932.593 223.029C937.164 223.029 941.141 222.114 944.524 220.286C947.907 218.366 950.513 215.623 952.341 212.057C954.17 208.4 955.084 204.011 955.084 198.891V161.314H968.25V234H955.77V214.389L957.827 219.6C955.45 224.446 951.884 228.194 947.13 230.846C942.376 233.497 937.027 234.823 931.084 234.823ZM983.714 234V132.24H996.88V234H983.714ZM1012.42 234V161.314H1025.58V234H1012.42ZM1019 147.326C1016.44 147.326 1014.29 146.503 1012.55 144.857C1010.91 143.211 1010.09 141.2 1010.09 138.823C1010.09 136.354 1010.91 134.297 1012.55 132.651C1014.29 131.006 1016.44 130.183 1019 130.183C1021.56 130.183 1023.66 131.006 1025.31 132.651C1027.05 134.206 1027.91 136.171 1027.91 138.549C1027.91 141.017 1027.09 143.12 1025.45 144.857C1023.8 146.503 1021.65 147.326 1019 147.326Z" fill="#58585A"/>
</svg>
